<svg id="Layer_1" data-name="Layer 1" xmlns="http://www.w3.org/2000/svg" viewBox="0 0 81 81"><defs><style>.cls-1{fill:#ec692e;}.cls-2{fill:#fff;}</style></defs><circle class="cls-1" cx="40.5" cy="40.5" r="40.5"/><path class="cls-2" d="M60.68,22.41c-4.88,0-8.84,5.44-8.84,12.14,0,5.09,2.28,9.44,5.51,11.25V79.53a3.33,3.33,0,1,0,6.65,0V45.8c3.23-1.81,5.51-6.16,5.51-11.25C69.51,27.85,65.56,22.41,60.68,22.41Z" transform="translate(-10.49 -11.58)"/><path class="cls-2" d="M45.32,35.29a1.51,1.51,0,1,1-3,0v-14H39.85v14a1.51,1.51,0,1,1-3,0v-14l-2.38,1.11V41.48a11.12,11.12,0,0,0,3.3,4.24V79.53a3.33,3.33,0,1,0,6.65,0v-34a11.33,11.33,0,0,0,3.29-4.43V22.41L45.32,21.3Z" transform="translate(-10.49 -11.58)"/></svg>