<svg id="Layer_1" data-name="Layer 1" xmlns="http://www.w3.org/2000/svg" viewBox="0 0 35.05 61.56"><defs><style>.cls-1{fill:#ec692e;}</style></defs><path class="cls-1" d="M59.17,22c-4.88,0-8.84,5.43-8.84,12.14,0,5.08,2.28,9.44,5.51,11.24V79.11a3.33,3.33,0,1,0,6.65,0V45.37C65.72,43.57,68,39.21,68,34.13,68,27.42,64,22,59.17,22Z" transform="translate(-32.95 -20.87)"/><path class="cls-1" d="M43.81,34.87a1.51,1.51,0,1,1-3,0v-14H38.34v14a1.51,1.51,0,1,1-3,0v-14L33,22V41.05a11.06,11.06,0,0,0,3.29,4.25V79.11a3.33,3.33,0,1,0,6.66,0v-34a11.4,11.4,0,0,0,3.29-4.43V22l-2.38-1.12Z" transform="translate(-32.95 -20.87)"/></svg>