<svg id="Layer_1" data-name="Layer 1" xmlns="http://www.w3.org/2000/svg" viewBox="0 0 67.85 67.85"><defs><style>.cls-1{fill:#ec692e;}</style></defs><path class="cls-1" d="M74.49,73.75a33.86,33.86,0,0,0,0-47.65,1,1,0,0,0-.13-.16l-.17-.14a33.86,33.86,0,0,0-47.65,0l-.16.14a1,1,0,0,0-.13.16,33.84,33.84,0,0,0,0,47.65,1.83,1.83,0,0,0,.13.16l.16.14a33.86,33.86,0,0,0,47.65,0l.17-.14A1.83,1.83,0,0,0,74.49,73.75ZM68.91,66a1.74,1.74,0,0,0-2.46,2.46l4.17,4.16a30.31,30.31,0,0,1-18.51,7.69V74.41a1.74,1.74,0,0,0-3.48,0v5.91a30.34,30.34,0,0,1-18.51-7.69l4.16-4.16A1.74,1.74,0,0,0,31.82,66l-4.16,4.16A30.27,30.27,0,0,1,20,51.66h5.9a1.74,1.74,0,1,0,0-3.48H20a30.32,30.32,0,0,1,7.68-18.51l4.16,4.17a1.74,1.74,0,0,0,2.46-2.46l-4.16-4.17a30.33,30.33,0,0,1,18.51-7.68v5.91a1.74,1.74,0,0,0,3.48,0V19.53a30.31,30.31,0,0,1,18.51,7.69l-4.16,4.16a1.74,1.74,0,1,0,2.46,2.46l4.16-4.16a30.33,30.33,0,0,1,7.68,18.5h-5.9a1.74,1.74,0,1,0,0,3.48h5.9a30.33,30.33,0,0,1-7.68,18.51Z" transform="translate(-16.44 -16)"/><path class="cls-1" d="M50.37,30.87a1.74,1.74,0,0,0-1.74,1.74V48.87L36.8,55a1.74,1.74,0,0,0,.8,3.28,1.74,1.74,0,0,0,.8-.19l12.77-6.65.08,0,.15-.1.13-.11.12-.12a.69.69,0,0,0,.11-.13l.09-.14a.64.64,0,0,0,.08-.14.77.77,0,0,0,.07-.16c0-.05,0-.1,0-.16l0-.16a1.11,1.11,0,0,0,0-.19s0,0,0-.09V32.61A1.74,1.74,0,0,0,50.37,30.87Z" transform="translate(-16.44 -16)"/></svg>