<svg id="Layer_1" data-name="Layer 1" xmlns="http://www.w3.org/2000/svg" viewBox="0 0 47.58 63.04"><defs><style>.cls-1{fill:#ec692e;}</style></defs><path class="cls-1" d="M47.6,83.12a2.25,2.25,0,0,0,3.15.48,2.19,2.19,0,0,0,.48-.48L68.48,59.6a24.61,24.61,0,0,0,2.41-24.93A23.18,23.18,0,0,0,51.26,21.06a28.4,28.4,0,0,0-3.69,0A23.15,23.15,0,0,0,28,34.67,24.59,24.59,0,0,0,30.36,59.6ZM32,36.57a18.72,18.72,0,0,1,15.84-11c.51,0,1-.05,1.55-.05s1,0,1.54.05a18.72,18.72,0,0,1,15.84,11,20.1,20.1,0,0,1-2,20.37L49.42,78,34,56.94A20.1,20.1,0,0,1,32,36.57Z" transform="translate(-25.63 -21)"/><path class="cls-1" d="M49.42,57A12.38,12.38,0,1,0,37,44.64,12.38,12.38,0,0,0,49.42,57Zm0-20.26a7.88,7.88,0,1,1-7.88,7.88A7.88,7.88,0,0,1,49.42,36.76Z" transform="translate(-25.63 -21)"/></svg>