<svg id="Layer_1" data-name="Layer 1" xmlns="http://www.w3.org/2000/svg" viewBox="0 0 64.02 48.79"><defs><style>.cls-1{fill:#ec692e;}</style></defs><path class="cls-1" d="M49.61,28.94A18.85,18.85,0,1,0,68.47,47.79,18.86,18.86,0,0,0,49.61,28.94Zm0,34.84a16,16,0,1,1,16-16A16,16,0,0,1,49.61,63.78Z" transform="translate(-17.47 -25.74)"/><path class="cls-1" d="M49.61,36.12A11.68,11.68,0,1,0,61.29,47.8h0A11.69,11.69,0,0,0,49.61,36.12Zm0,20.49a8.82,8.82,0,1,1,8.86-8.82,8.82,8.82,0,0,1-8.86,8.82h0Z" transform="translate(-17.47 -25.74)"/><path class="cls-1" d="M28.4,32.72h0A1.44,1.44,0,0,0,27,34.12l.05,13H25.11v-13a1.43,1.43,0,0,0-2.86,0v13H20.34v-13a1.44,1.44,0,0,0-2.87,0V47.3a2.67,2.67,0,0,0,2.32,2.64l-.6,22.39a2.44,2.44,0,0,0,2.65,2.18h3.68a2.4,2.4,0,0,0,2.64-2.12v-.1l-.59-22.35a2.67,2.67,0,0,0,2.32-2.65l-.06-13.17A1.42,1.42,0,0,0,28.4,32.72ZM22.08,71.64,22.66,50h2l.58,21.67Z" transform="translate(-17.47 -25.74)"/><path class="cls-1" d="M74.47,26a1.44,1.44,0,0,0-2,.3,1.5,1.5,0,0,0-.29.85V71.05a3.46,3.46,0,0,0,6.92,0V53.88h.75a1.43,1.43,0,0,0,1.43-1.32C82.91,32.67,74.8,26.29,74.47,26Zm1.75,45a.58.58,0,0,1-.59.59A.59.59,0,0,1,75,71h0V53.88h1.18Zm2.29-20H75V31.28C76.9,34.5,79.14,40.62,78.47,51Z" transform="translate(-17.47 -25.74)"/></svg>